<svg version="1" xmlns="http://www.w3.org/2000/svg" width="1600" height="1600" viewBox="0 0 1200.000000 1200.000000"><path d="M308 582.4V1020h118V668h80.8c87.2-.1 99.4-.3 120.7-2.4 1.7-.2 6.2-.6 10-1 5.9-.6 20.3-2.8 33.9-5.2 2.7-.4 8.2-1.6 13.9-3 .9-.2 2.6-.6 3.7-.8 16.9-3.8 42.4-13.1 61-22.3 12.8-6.3 33.5-19.4 40.9-25.8 7.8-6.7 15.8-14.1 18.4-17 8-8.6 9.7-10.5 14.4-16.5 16.3-21.1 29.7-48.1 37.8-76.4 1.4-4.9 2.8-10.3 3.1-12 .2-1.7.9-4.7 1.4-6.6 1.3-4.7 4.7-28.4 5.7-39 1.5-16.9.8-67.5-1.1-77.8-.2-.9-.7-4.4-1.1-7.7-.8-7.5-5-28.2-7.1-35.5-.9-3-1.7-6.2-1.9-7-1.2-5.6-8.7-24.6-14-35.7-6.2-12.7-19.6-33.9-26.5-41.9-5.2-5.9-22.9-23.5-28-27.8-7.6-6.3-28.9-20.1-40-25.8-25.6-13.2-60.1-24.2-91.8-29.2-16.1-2.6-22.5-3.4-32.7-4.1-4.4-.4-9.3-.9-11-1.2-1.6-.4-71.7-.8-155.7-1l-152.8-.4v437.5zm304.5-338c5.5 1 11.2 1.9 12.6 2.2 3.1.4 16.7 4 22.4 5.9 38.2 12.6 69.1 39.2 84.4 72.9 6 13 10.5 27.5 12.7 41.1.3 1.6.7 3.6.9 4.3 2.5 7.2 2.5 53 .1 69.1-6.8 45.1-25.4 77.2-58.4 100.8-18.9 13.5-45 23.4-71.7 27.3-4.4.6-9.1 1.4-10.5 1.7-1.4.4-42.2.8-90.7 1l-88.3.4V241.9l88.3.4c78.4.3 89.3.6 98.2 2.1z"/></svg>